<svg width="96" height="32" viewBox="0 0 96 32" fill="none" xmlns="http://www.w3.org/2000/svg">
<path d="M2.36987 10.8652C1.9276 10.5344 1.30092 10.6248 0.97014 11.0671C0.639359 11.5094 0.729739 12.136 1.17201 12.4668L1.77094 11.666L2.36987 10.8652ZM18.8138 24.7203L18.181 25.4947L18.8138 24.7203ZM35.3735 30.9242L35.327 31.9231L35.3735 30.9242ZM52.6336 26.5056L52.1109 25.6531L52.6336 26.5056ZM58.5791 17.552L57.5793 17.5346L58.5791 17.552ZM53.6386 9.8205L54.4443 9.22825L53.6386 9.8205ZM42.4658 13.1542L41.4658 13.1473L42.4658 13.1542ZM47.1886 20.2674L47.8216 19.4933L47.1886 20.2674ZM64.8288 25.693L64.6401 24.711L64.8288 25.693ZM77.9526 16.7907L77.2184 16.1119L77.2112 16.1197L77.2041 16.1276L77.9526 16.7907ZM96.0004 2.02365C96.0144 1.47154 95.5781 1.01266 95.026 0.998713L86.0289 0.771453C85.4767 0.757506 85.0179 1.19377 85.0039 1.74588C84.99 2.29799 85.4262 2.75687 85.9783 2.77081L93.9758 2.97282L93.7738 10.9703C93.7598 11.5224 94.1961 11.9813 94.7482 11.9952C95.3003 12.0091 95.7592 11.5729 95.7732 11.0208L96.0004 2.02365ZM1.77094 11.666L1.17201 12.4668C5.47197 15.6828 14.1111 22.1688 18.181 25.4947L18.8138 24.7203L19.4466 23.946C15.3355 20.5865 6.65574 14.0707 2.36987 10.8652L1.77094 11.666ZM18.8138 24.7203L18.181 25.4947C23.2078 29.6025 29.6528 31.659 35.327 31.9231L35.3735 30.9242L35.42 29.9253C30.1153 29.6783 24.0975 27.7467 19.4466 23.946L18.8138 24.7203ZM35.3735 30.9242L35.327 31.9231C42.5345 32.2586 48.3923 30.279 53.1563 27.3581L52.6336 26.5056L52.1109 25.6531C47.6449 28.3913 42.1791 30.2399 35.42 29.9253L35.3735 30.9242ZM52.6336 26.5056L53.1563 27.3581C58.5801 24.0326 59.5384 19.9021 59.579 17.5694L58.5791 17.552L57.5793 17.5346C57.5489 19.2818 56.8735 22.733 52.1109 25.6531L52.6336 26.5056ZM58.5791 17.552L59.579 17.5694C59.6053 16.055 58.6931 14.6039 57.7267 13.3272C57.2244 12.6635 56.653 11.9808 56.0926 11.3044C55.5255 10.6198 54.9625 9.93314 54.4443 9.22825L53.6386 9.8205L52.8328 10.4128C53.389 11.1694 53.9856 11.896 54.5524 12.5803C55.126 13.2726 55.6628 13.9143 56.132 14.5342C57.1087 15.8246 57.5925 16.7778 57.5793 17.5346L58.5791 17.552ZM53.6386 9.8205L54.4443 9.22825C53.7036 8.22051 52.5388 7.65221 51.4298 7.32601C50.3024 6.99439 49.0983 6.87324 48.1114 6.85467L48.0926 7.85449L48.0737 8.85431C48.9469 8.87074 49.9618 8.97892 50.8654 9.24472C51.7875 9.51593 52.4656 9.91314 52.8328 10.4128L53.6386 9.8205ZM48.0926 7.85449L48.1114 6.85467C45.9916 6.81477 44.2818 7.56865 43.1231 8.80038L43.8514 9.48557L44.5798 10.1708C45.3216 9.38225 46.4733 8.82419 48.0737 8.85431L48.0926 7.85449ZM43.8514 9.48557L43.1231 8.80038C41.968 10.0282 41.4763 11.6318 41.4658 13.1473L42.4658 13.1542L43.4658 13.1611C43.4735 12.0484 43.8344 10.9631 44.5798 10.1708L43.8514 9.48557ZM42.4658 13.1542L41.4658 13.1473C41.4549 14.7151 42.1016 16.1649 43.0303 17.4561C43.9595 18.748 45.2193 19.949 46.5557 21.0416L47.1886 20.2674L47.8216 19.4933C46.549 18.4527 45.4384 17.3788 44.654 16.2882C43.869 15.1969 43.4588 14.1566 43.4658 13.1611L42.4658 13.1542ZM47.1886 20.2674L46.5557 21.0416C49.8974 23.7739 53.9193 25.2861 57.3542 26.0657C60.7574 26.8382 63.7295 26.9226 65.0175 26.675L64.8288 25.693L64.6401 24.711C63.7381 24.8843 61.0743 24.8592 57.7969 24.1154C54.5513 23.3787 50.8481 21.9677 47.8216 19.4933L47.1886 20.2674ZM64.8288 25.693L65.0175 26.675C69.9453 25.728 74.7818 21.8779 78.7012 17.4538L77.9526 16.7907L77.2041 16.1276C73.3712 20.4541 68.9053 23.8913 64.6401 24.711L64.8288 25.693ZM77.9526 16.7907L78.6869 17.4696C80.4975 15.5112 82.6281 13.8259 84.8682 12.1116C87.0883 10.4126 89.4262 8.67803 91.5345 6.67364L90.8455 5.9489L90.1565 5.22417C88.1448 7.13667 85.9116 8.79472 83.6528 10.5233C81.414 12.2366 79.1582 14.0138 77.2184 16.1119L77.9526 16.7907ZM90.8455 5.9489L91.5345 6.67364C92.4274 5.8247 93.1657 5.12286 93.831 4.49035C94.4962 3.85785 95.0886 3.29469 95.6898 2.72313L95.0007 1.99839L94.3117 1.27366C93.7105 1.84522 93.1182 2.40838 92.4529 3.04088C91.7876 3.67338 91.0494 4.37523 90.1565 5.22417L90.8455 5.9489Z" fill="#1D4841"/>
</svg>
